<svg xmlns="http://www.w3.org/2000/svg" width="700" height="700" viewBox="0 0 700 700" fill="#fff">
  <!-- Pločica brand pattern — designer's fork / knife / spatula + sparks
       (elementi.pdf, 2026-05-18). Uses fill=currentColor so CSS sets the
       hue and opacity; consumed by the .utensil-scatter class. -->
  <g transform="translate(-66, 67)">
        <path d="M 470.289062 327.058594 C 468.167969 323.773438 467.347656 319.761719 467.472656 315.851562 C 467.59375 311.945312 468.609375 308.113281 469.917969 304.429688 C 469.429688 308.179688 470.4375 312.105469 472.675781 315.15625 C 474.398438 317.503906 476.761719 319.292969 478.695312 321.46875 C 481.023438 324.085938 483.367188 328.300781 484.304688 331.671875 C 484.886719 333.777344 485.148438 335.980469 485.09375 338.164062 C 485.054688 339.859375 483.78125 342.769531 484.097656 344.265625 C 483.160156 339.820312 480.382812 336.921875 477.058594 334.019531 C 474.621094 331.890625 472.066406 329.804688 470.289062 327.058594 "/>
    <path d="M 211.175781 344.136719 C 206.488281 336.882812 204.679688 328.023438 204.949219 319.390625 C 205.21875 310.761719 207.464844 302.296875 210.355469 294.160156 C 209.277344 302.445312 211.503906 311.117188 216.445312 317.855469 C 220.246094 323.039062 225.472656 326.988281 229.742188 331.789062 C 234.878906 337.570312 240.058594 346.878906 242.121094 354.324219 C 243.414062 358.976562 243.988281 363.84375 243.871094 368.667969 C 243.785156 372.410156 240.96875 378.835938 241.667969 382.140625 C 239.597656 372.324219 233.460938 365.917969 226.121094 359.507812 C 220.738281 354.808594 215.097656 350.203125 211.175781 344.136719 "/>
    <path d="M 545.871094 441.046875 C 542.304688 435.53125 540.929688 428.796875 541.136719 422.234375 C 541.339844 415.671875 543.046875 409.238281 545.246094 403.050781 C 544.425781 409.347656 546.117188 415.941406 549.875 421.066406 C 552.765625 425.003906 556.738281 428.007812 559.984375 431.660156 C 563.890625 436.054688 567.828125 443.128906 569.394531 448.789062 C 570.375 452.328125 570.8125 456.027344 570.726562 459.695312 C 570.660156 462.539062 568.519531 467.421875 569.050781 469.9375 C 567.476562 462.476562 562.8125 457.605469 557.230469 452.734375 C 553.140625 449.160156 548.851562 445.65625 545.871094 441.046875 "/>
    <path d="M 237.136719 237.96875 C 234.589844 233.820312 233.6875 228.800781 233.957031 223.9375 C 234.222656 219.078125 235.601562 214.335938 237.339844 209.789062 C 236.621094 214.445312 237.761719 219.363281 240.457031 223.226562 C 242.53125 226.199219 245.421875 228.492188 247.765625 231.257812 C 250.585938 234.585938 253.378906 239.898438 254.441406 244.125 C 255.109375 246.765625 255.367188 249.515625 255.238281 252.234375 C 255.136719 254.339844 253.464844 257.925781 253.816406 259.796875 C 252.78125 254.238281 249.40625 250.542969 245.355469 246.832031 C 242.382812 244.113281 239.265625 241.441406 237.136719 237.96875 "/>
    <path d="M 420.703125 146.980469 C 423.417969 155.230469 422.234375 164.191406 421.019531 172.789062 C 419.929688 166.957031 416.898438 161.503906 412.519531 157.5 C 409.113281 154.382812 404.953125 152.152344 401.675781 148.898438 C 393.433594 140.734375 392.160156 127.847656 394.992188 117.09375 C 395.214844 116.25 397.019531 109.261719 398.261719 109.769531 C 398.992188 110.066406 399.222656 110.960938 399.429688 111.71875 C 403.136719 125.214844 416.347656 133.742188 420.703125 146.980469 "/>
    <path d="M 624.035156 347.710938 C 626.746094 355.960938 625.5625 364.921875 624.351562 373.519531 C 623.261719 367.6875 620.230469 362.234375 615.851562 358.230469 C 612.441406 355.113281 608.285156 352.882812 605.003906 349.628906 C 596.761719 341.460938 595.488281 328.578125 598.324219 317.824219 C 598.546875 316.980469 600.351562 309.992188 601.59375 310.5 C 602.320312 310.796875 602.554688 311.691406 602.761719 312.449219 C 606.464844 325.945312 619.679688 334.472656 624.035156 347.710938 "/>
    <path d="M 355.699219 448.078125 C 358.414062 456.328125 357.230469 465.285156 356.019531 473.886719 C 354.925781 468.050781 351.894531 462.601562 347.515625 458.59375 C 344.109375 455.480469 339.949219 453.246094 336.671875 449.996094 C 328.429688 441.828125 327.15625 428.945312 329.992188 418.191406 C 330.214844 417.347656 332.015625 410.359375 333.257812 410.867188 C 333.988281 411.164062 334.21875 412.054688 334.429688 412.8125 C 338.132812 426.308594 351.34375 434.839844 355.699219 448.078125 "/>
    <path d="M 397.785156 259.386719 C 396.003906 256.335938 391.332031 258.15625 392.082031 261.613281 C 397.253906 285.46875 417.15625 365.886719 432.269531 425.691406 C 435.128906 424.605469 451.320312 420.152344 451.320312 420.152344 C 451.320312 420.152344 449.34375 414.878906 450.292969 414.265625 C 454.796875 411.359375 465.839844 409.859375 460.875 397.648438 C 458.105469 390.832031 406.082031 273.589844 397.785156 259.386719 "/>
    <path d="M 451.035156 457.507812 C 447.695312 459.054688 445.347656 454.730469 445.597656 451.933594 C 445.726562 450.445312 446.707031 449.054688 448.226562 448.730469 C 449.148438 448.535156 449.949219 448.902344 450.605469 449.480469 C 453.132812 450.816406 454.058594 456.109375 451.035156 457.507812 M 461.640625 481.824219 C 461.839844 482.328125 462.003906 483.042969 462.097656 483.820312 C 462.292969 484.710938 462.320312 485.664062 462.0625 486.492188 C 461.757812 488.15625 460.828125 489.398438 458.738281 488.726562 C 458.511719 488.65625 458.339844 488.507812 458.144531 488.390625 C 455.832031 487.484375 454.71875 483.554688 455.164062 481.355469 C 455.5 479.695312 456.871094 478.257812 458.683594 478.6875 C 460.191406 479.042969 461.113281 480.472656 461.640625 481.824219 M 433.113281 429.292969 C 443.082031 468.679688 451.707031 500.835938 454.414062 506.136719 C 458.558594 514.253906 480.855469 503.710938 473.125 482.214844 C 456.027344 434.683594 453.816406 428.601562 451.96875 423.632812 C 445.675781 425.574219 439.875 427.304688 433.113281 429.292969 "/>
    <path d="M 337.03125 328.589844 C 336.578125 329.117188 335.996094 329.503906 335.273438 329.671875 C 333.734375 330.035156 332.109375 329.199219 331.097656 327.984375 C 330.085938 326.769531 329.5625 325.230469 329.078125 323.726562 C 328.378906 321.5625 327.703125 319.335938 327.785156 317.0625 C 327.898438 313.796875 329.910156 310.722656 333.4375 311.914062 C 337.246094 313.195312 337.597656 319.914062 338.175781 323.0625 C 338.523438 324.949219 338.207031 327.234375 337.03125 328.589844 M 298.574219 180.453125 C 305.410156 173.410156 315.570312 165.925781 309.058594 148.410156 C 268.105469 38.25 292.914062 120.898438 294.558594 151.191406 C 294.710938 153.921875 291.101562 154.957031 289.695312 152.609375 C 283.195312 141.734375 277.476562 108.398438 269.308594 96.984375 C 268.875 112.386719 280.445312 172.671875 269.539062 156.964844 C 267.464844 153.984375 247.011719 78.019531 249.53125 105.726562 C 256.601562 183.515625 254.855469 184.121094 284.894531 184.957031 C 308.210938 274.902344 307.621094 326.144531 331.1875 342.605469 C 340.585938 349.171875 351.472656 342.5 349.882812 324.828125 C 348.445312 308.894531 295.652344 183.464844 298.574219 180.453125 "/>
    <path d="M 526.550781 187.160156 C 526.628906 185.824219 527.140625 183.765625 526.792969 181.855469 C 526.730469 181.503906 519.199219 140.011719 518.277344 138.882812 C 517.457031 137.882812 516.246094 136.480469 515.273438 136.527344 C 514.308594 136.574219 512.816406 138.09375 512.648438 139.152344 C 511.679688 145.320312 511.390625 143.144531 520.855469 184.335938 C 521.128906 185.527344 521.714844 186.730469 522.4375 187.726562 C 523.394531 189.039062 525.148438 188.964844 526.550781 187.160156 M 511.832031 189.847656 C 511.964844 188.277344 512.472656 186.089844 512.277344 183.960938 C 511.59375 176.503906 507.433594 147.0625 502.757812 141.992188 C 501.921875 141.085938 500.449219 140.328125 499.25 140.300781 C 492.15625 140.132812 503.707031 179.917969 505.242188 185.34375 C 505.738281 187.105469 506.835938 188.765625 507.921875 190.289062 C 508.941406 191.71875 510.546875 191.644531 511.832031 189.847656 M 486.585938 142.898438 C 483.703125 140.667969 480.332031 142.304688 481.304688 148.988281 C 483.320312 162.839844 486.175781 176.53125 490.289062 189.949219 C 491.296875 193.234375 492.652344 195.722656 495.90625 194.984375 C 502.644531 193.460938 491.539062 160.347656 488.476562 146.691406 C 488.144531 145.21875 487.097656 143.894531 486.585938 142.898438 M 521.113281 203.894531 C 520.605469 204.066406 522.984375 215.15625 523.214844 216.261719 C 526.300781 231.148438 532.832031 246.613281 537.78125 260.976562 C 543.835938 278.554688 558.808594 307.855469 560.6875 326.574219 C 561.28125 332.503906 550.683594 341.703125 542.476562 330.363281 C 535.359375 320.53125 515.710938 238.289062 509.144531 216.886719 C 507.175781 210.472656 505.835938 207.714844 499.117188 208.042969 C 489.988281 208.480469 485.027344 205.351562 481.578125 195.507812 C 475.144531 177.136719 469.808594 146.105469 469.917969 138.800781 C 470.011719 132.59375 470.542969 133.371094 501.421875 127.625 C 520.339844 124.105469 520.855469 124.265625 523.0625 130.378906 C 528.347656 145.003906 533.898438 175.785156 534.453125 181.421875 C 535.414062 191.105469 536.003906 198.683594 527.628906 201.691406 C 525.578125 202.425781 523.5 203.089844 521.113281 203.894531 "/>
    <path d="M 320.8125 367.058594 C 321.238281 367.066406 321.394531 366.421875 321.011719 366.234375 C 312.957031 362.285156 305.042969 358.886719 299.023438 351.898438 C 293.023438 344.929688 291.195312 336.765625 288.5 328.261719 C 288.261719 327.511719 286.929688 327.40625 286.828125 328.308594 C 284.835938 346.242188 302.855469 366.652344 320.8125 367.058594 "/>
    <path d="M 451.335938 528.265625 C 451.765625 528.277344 451.921875 527.632812 451.539062 527.441406 C 443.480469 523.496094 435.566406 520.09375 429.550781 513.105469 C 423.546875 506.136719 421.722656 497.972656 419.027344 489.472656 C 418.789062 488.722656 417.457031 488.613281 417.355469 489.515625 C 415.363281 507.453125 433.382812 527.859375 451.335938 528.265625 "/>
    <path d="M 390.164062 231.34375 C 389.796875 231.417969 389.785156 231.996094 390.148438 232.082031 C 397.734375 233.914062 405.101562 235.308594 411.53125 240.109375 C 417.949219 244.898438 421.042969 251.484375 424.9375 258.199219 C 425.28125 258.792969 426.433594 258.632812 426.347656 257.847656 C 424.65625 242.234375 405.492188 228.300781 390.164062 231.34375 "/>
    <path d="M 510.808594 96.65625 C 510.441406 96.730469 510.433594 97.308594 510.792969 97.394531 C 518.382812 99.226562 525.75 100.621094 532.179688 105.421875 C 538.59375 110.210938 541.6875 116.796875 545.582031 123.511719 C 545.925781 124.105469 547.082031 123.945312 546.996094 123.160156 C 545.300781 107.546875 526.136719 93.613281 510.808594 96.65625 "/>
    <path d="M 545.332031 355.808594 C 545.707031 355.792969 545.804688 355.226562 545.457031 355.085938 C 538.230469 352.132812 531.15625 349.652344 525.519531 343.941406 C 519.890625 338.246094 517.820312 331.269531 514.976562 324.046875 C 514.726562 323.410156 513.5625 323.394531 513.527344 324.183594 C 512.859375 339.875 529.71875 356.523438 545.332031 355.808594 "/>
  </g>
</svg>
